# xmcd
# Track frame offsets:
# 150
# 17935
# 29154
# 49252
# 69110
# 88416
# 100349
# 116845
# 132707
# 151919
#
# Disc length: 2246 seconds
# Revision: 0
# Processed by: cddbd v1.5.2PL0 Copyright (c) Steve Scherf et al.
# Submitted via: VisiTrax 2.11.3.279 - For more info visit www.synapsa.com
#
DISCID=9108c40a
DTITLE=Crankshaft and the Gear Grinders - Boogie Melt
DYEAR=2013
DGENRE=
TTITLE0=Barkikn' Up the Wrong Tree
TTITLE1=What's Inside A Girl
TTITLE2=327
TTITLE3=Leavin' this Town
TTITLE4=Let Me Love You
TTITLE5=Trail of Tears
TTITLE6=Prayin' For Snow
TTITLE7=Solid Gone
TTITLE8=I Wanna Play
TTITLE9=Neighbor Boys
EXTD=
EXTT0=
EXTT1=
EXTT2=
EXTT3=
EXTT4=
EXTT5=
EXTT6=
EXTT7=
EXTT8=
EXTT9=
PLAYORDER=
